<?xml version="1.0" standalone="no"?>
<svg viewBox="0 0 200 200" xmlns="http://www.w3.org/2000/svg">
  <path fill="#9CAF88" d="M46.1,-71.7C58.3,-63.9,65.8,-48.7,69.5,-33.8C73.2,-18.8,73,-4.2,68.7,8.3C64.4,20.7,55.9,30.9,47.6,42.4C39.4,53.9,31.4,66.7,19.6,73C7.8,79.2,-7.6,79,-23.9,76.5C-40.1,73.9,-57.1,69.1,-64.1,57.5C-71,45.9,-67.9,27.6,-70.1,10.3C-72.3,-7.1,-79.8,-23.5,-76.2,-36.2C-72.5,-48.8,-57.7,-57.8,-43.1,-64.5C-28.6,-71.3,-14.3,-75.8,1.3,-77.9C17,-79.9,33.9,-79.5,46.1,-71.7Z" transform="translate(100 100)" />
</svg>
