<?xml version="1.0" standalone="no"?>
<svg viewBox="0 0 200 200" xmlns="http://www.w3.org/2000/svg">
  <path fill="#808080" d="M21.4,-41C26.9,-29.9,29.7,-22.4,37.7,-14.4C45.7,-6.5,58.8,1.9,58.6,9C58.4,16,44.9,21.6,34.5,25.2C24.1,28.8,16.7,30.4,7.8,38.3C-1,46.2,-11.5,60.5,-23.8,64.4C-36.1,68.4,-50.2,62.1,-58.9,51.4C-67.6,40.7,-70.8,25.7,-67.7,12.9C-64.6,0.1,-55.2,-10.4,-51.4,-25.5C-47.7,-40.6,-49.6,-60.3,-41.9,-70.5C-34.3,-80.7,-17.2,-81.3,-4.6,-74.2C8,-67.1,16,-52.2,21.4,-41Z" transform="translate(100 100)" />
</svg>
